<svg xmlns="http://www.w3.org/2000/svg" width="190" height="40" viewBox="0 0 190 40"><defs><style>.a{fill:#ebfffb;}.b{fill:#ff5858;}</style></defs><path class="a" d="M27.6982,9.4736c1.6324-3.36,2.9283-4.9443,6.3365-4.9443A4.5272,4.5272,0,0,1,37.731,5.8735c.7685.9121.9121,1.8721,1.1044,3.84l2.1124,21.65c.0478.5752.0957,1.2959.0957,1.68,0,2.0166-1.2959,3.0723-4.2247,3.0723-3.12,0-4.3681-1.2-4.56-3.5039l-1.0562-15.314L25.7783,30.3555c-.72,1.6806-1.6323,2.9765-4.1762,2.9765s-3.4087-1.2959-4.1285-2.9765l-5.4248-13.105-1.104,15.3618c-.1919,2.208-1.2959,3.5039-4.4643,3.5039-2.688,0-4.1284-.9121-4.1284-3.168,0-.4326.0483-1.0566.144-1.9687l2.16-21.2656c.1924-2.0645.3365-3.1685,1.3443-4.0806a5.15,5.15,0,0,1,3.6963-1.104c3.5522,0,4.8486,1.5361,6.48,4.9443L21.89,21.4268Z"/><path class="a" d="M55.3926,31.3643c0,1.5361,0,2.5918-.624,3.456s-1.6807,1.2959-3.5049,1.2959S48.3843,35.6846,47.76,34.82s-.6241-1.92-.6241-3.456V9.9058c0-1.7281,0-3.7925,3.0723-4.7525a23.19,23.19,0,0,1,6.6724-.72,19.3893,19.3893,0,0,1,8.2558,1.44A8.7544,8.7544,0,0,1,70.418,14.37a9.344,9.344,0,0,1-4.8965,8.5928l6.624,8.7851c1.5361,2.0645.5762,4.3682-3.5517,4.3682-3.169,0-4.3692-1.3437-5.8565-3.6006l-3.3125-4.9922c-.8643-1.3437-1.5361-2.6406-1.5361-2.6406H55.3926Zm0-13.106s.6719.0483,1.3437.0483c3.5528,0,4.9444-1.392,4.9444-3.4565,0-2.4-1.8721-3.1685-4.3682-3.1685a13.0285,13.0285,0,0,0-1.92.1441Z"/><path class="b" d="M86.16,16.05h4.5127c1.5361,0,2.5917,0,3.456.5762s1.2959,1.4878,1.2959,3.12c0,1.584-.4316,2.4961-1.2959,3.0722s-1.92.5762-3.456.5762H86.16v5.1362h7.2c1.5361,0,2.5927,0,3.457.5762s1.2959,1.4883,1.2959,3.12c0,1.585-.4326,2.4961-1.2959,3.0723s-1.9209.5762-3.457.5762H81.9355c-2.9765,0-4.08-1.1035-4.08-4.08V8.9458c0-2.9766,1.1035-4.0806,4.08-4.0806H92.4971c1.5361,0,2.5918,0,3.456.5762S97.249,6.93,97.249,8.5615c0,1.584-.4316,2.4961-1.2959,3.0723s-1.92.5762-3.456.5762H86.16Z"/><path class="b" d="M118.3213,18.6426c2.4961,1.68,4.6084,4.08,4.6084,8.0166,0,6.1445-5.2324,9.6972-11.6172,9.6972a15.6738,15.6738,0,0,1-6.5293-1.3925c-1.6318-.7676-3.0234-1.7764-3.0234-3.6963,0-1.8242,1.248-4.2246,3.456-4.2246,2.0156,0,3.5518,2.0166,6.1446,2.0166,1.7275,0,2.832-.8643,2.832-2.0645,0-1.4883-1.68-2.4-3.7442-3.5044-3.5527-1.872-8.4-4.1284-8.4-9.7446,0-5.8086,5.04-9.5049,11.2324-9.5049,4.32,0,9.1211,1.8242,9.1211,4.9927,0,1.8237-1.584,4.0322-3.6485,4.0322-1.7763,0-3.5039-1.68-5.665-1.68-1.44,0-2.3037.7681-2.3037,1.68C110.7842,15.2344,114.8643,16.29,118.3213,18.6426Z"/><path class="b" d="M136.8467,17.97l7.9687-9.8887C146.64,5.8252,147.84,4.5293,151.2,4.5293c2.88,0,3.8408.96,3.8408,2.208a4.7039,4.7039,0,0,1-1.5849,2.9766L144.96,19.1226l9.6484,11.5688a5.0206,5.0206,0,0,1,1.5361,3.0244c0,1.3926-1.2,2.4-4.2246,2.4-3.5517,0-4.6562-1.3926-6.3838-3.6963l-8.6894-11.6172V31.3643c0,1.5361,0,2.5918-.6719,3.456s-1.7764,1.2959-3.6963,1.2959-3.0244-.4316-3.6963-1.2959-.6718-1.92-.6718-3.456V9.2817c0-1.5361,0-2.5922.6718-3.4565s1.7764-1.2959,3.6963-1.2959,3.0244.4321,3.6963,1.2959.6719,1.92.6719,3.4565Z"/><path class="b" d="M178.6553,29.6836H167.9512l-.8643,2.4c-1.0088,2.7842-2.208,4.0322-5.2324,4.0322-2.7363,0-3.7451-1.0078-3.7451-2.5439a5.01,5.01,0,0,1,.5283-2.0645l9.793-23.2344c1.0078-2.4482,2.16-3.7441,5.2324-3.7441,3.12,0,4.1289,1.3442,5.0889,3.7441l9.456,23.2823a5.8746,5.8746,0,0,1,.4326,1.92c0,1.7285-1.3437,2.6406-4.08,2.6406-2.8808,0-3.8886-1.0078-4.9931-3.9844Zm-8.3047-6.6245h5.9531l-2.9766-8.065Z"/></svg>